<svg xmlns="http://www.w3.org/2000/svg" xmlns:lucid="lucid" width="740" height="420"><g lucid:page-tab-id="0_0" stroke="#000" stroke-width="2" fill="#ccc"><path d="M330 20c16.57 0 30 13.43 30 30v180c0 16.57-13.43 30-30 30H50c-16.57 0-30-13.43-30-30V50c0-16.57 13.43-30 30-30zM690 20c16.57 0 30 13.43 30 30v180c0 16.57-13.43 30-30 30H430c-16.57 0-30-13.43-30-30V50c0-16.57 13.43-30 30-30zM690 280c16.57 0 30 13.43 30 30v60c0 16.57-13.43 30-30 30H50c-16.57 0-30-13.43-30-30v-60c0-16.57 13.43-30 30-30z"/></g></svg>